<?xml version="1.0" encoding="UTF-8" standalone="no"?>
<svg version="1.0"
    xmlns="http://www.w3.org/2000/svg" width="700.000000pt" height="265.000000pt" viewBox="0 0 700.000000 265.000000" preserveAspectRatio="xMidYMid meet">
    <metadata>
        Created by potrace 1.12, written by Peter Selinger 2001-2015
    </metadata>
    <g transform="translate(0.000000,265.000000) scale(0.100000,-0.100000)" fill="#000000" stroke="none">
        <path d="M3134 2407 c-3 -9 -54 -53 -112 -98 -59 -45 -112 -89 -119 -97 -7 -8
        -32 -29 -57 -46 -24 -17 -73 -53 -109 -81 -221 -172 -317 -246 -377 -295 -207
        -167 -362 -290 -414 -330 -60 -45 -100 -76 -372 -288 -81 -63 -161 -123 -180
        -134 -19 -11 -31 -24 -28 -29 3 -5 61 -9 130 -9 l124 0 43 40 c23 21 58 52 78
        67 42 32 196 151 282 218 33 25 82 65 110 90 29 25 57 45 62 45 6 0 43 28 82
        63 40 34 93 78 118 97 64 48 106 81 230 180 144 115 169 135 266 209 46 36
        109 85 139 111 30 25 79 63 108 85 52 37 54 39 48 77 -3 21 -9 56 -12 78 -7
        45 -30 72 -40 47z m16 -117 c0 -46 -2 -48 -300 -275 -58 -45 -170 -131 -248
        -193 -79 -62 -148 -112 -153 -112 -5 0 -9 9 -9 19 0 11 -9 26 -19 33 -21 15
        -61 -19 488 417 230 182 241 187 241 111z"></path>
        <path d="M3924 2245 c-10 -8 -34 -15 -52 -15 -17 0 -55 -12 -83 -27 -108 -58
        -174 -177 -171 -305 1 -72 25 -160 48 -179 8 -6 14 -17 14 -23 0 -12 79 -97
        188 -201 89 -85 105 -114 105 -191 0 -54 -4 -68 -24 -90 -35 -38 -72 -54 -123
        -54 -37 0 -52 6 -82 32 l-36 32 4 79 3 80 -99 1 c-97 1 -98 1 -112 -26 -21
        -40 -21 -185 0 -223 9 -16 16 -35 16 -41 0 -19 77 -83 107 -90 16 -3 39 -10
        53 -14 32 -11 182 -17 196 -8 6 4 38 11 72 17 40 6 77 20 104 39 46 32 108
        103 108 123 0 7 8 21 17 31 25 28 26 267 1 295 -10 11 -18 25 -18 32 0 21 -90
        128 -194 231 -53 52 -96 100 -96 106 0 6 -7 17 -15 24 -17 14 -21 101 -5 130
        17 33 74 60 124 60 60 0 81 -12 102 -56 15 -31 16 -41 5 -68 -29 -69 -28 -70
        94 -69 l110 0 6 64 c7 86 -1 176 -17 190 -8 6 -14 17 -14 25 0 17 -86 74 -113
        74 -12 1 -33 7 -47 15 -34 19 -150 20 -176 0z"></path>
        <path d="M4697 2212 c-10 -10 -17 -30 -17 -43 0 -14 -7 -34 -15 -45 -8 -10
        -15 -28 -15 -40 0 -11 -7 -29 -15 -40 -8 -10 -15 -26 -15 -34 0 -9 -9 -33 -20
        -55 -11 -22 -20 -49 -20 -61 0 -12 -7 -27 -15 -34 -8 -7 -15 -22 -15 -34 0
        -12 -7 -31 -15 -42 -8 -10 -15 -28 -15 -40 0 -11 -7 -29 -15 -40 -8 -10 -15
        -26 -15 -34 0 -8 -9 -32 -20 -53 -11 -20 -20 -45 -20 -55 0 -10 -7 -27 -15
        -38 -8 -10 -15 -28 -15 -40 0 -11 -7 -29 -15 -40 -8 -10 -15 -28 -15 -40 0
        -11 -7 -29 -15 -40 -8 -10 -15 -26 -15 -34 0 -9 -9 -33 -20 -55 -11 -22 -20
        -46 -20 -55 0 -8 -7 -24 -15 -34 -8 -11 -15 -30 -15 -42 0 -12 -7 -27 -15 -34
        -8 -7 -15 -22 -15 -33 0 -11 -7 -28 -16 -38 -28 -31 -8 -39 106 -39 l109 0 11
        43 c7 23 18 56 25 72 7 17 16 44 20 60 4 17 14 38 22 47 8 10 13 24 10 32 -3
        8 0 21 6 30 10 14 31 16 132 14 l120 -3 3 -148 3 -148 110 3 111 3 -1 309 c-1
        170 -6 317 -11 326 -5 10 -12 146 -16 304 l-7 286 -142 0 c-125 0 -144 -2
        -158 -18z m116 -475 c-2 -131 -5 -243 -8 -248 -8 -12 -156 -11 -175 1 -12 8
        -13 13 -2 30 6 11 12 29 12 39 0 11 4 22 9 26 5 3 17 30 25 60 9 30 21 57 26
        60 6 3 10 21 10 39 0 19 7 39 15 46 8 7 15 27 15 44 0 18 7 41 15 52 8 10 15
        29 15 41 0 35 11 54 29 51 14 -3 16 -28 14 -241z"></path>
        <path d="M5354 2213 c-3 -10 -10 -29 -14 -43 -5 -14 -12 -54 -16 -90 -3 -35
        -13 -82 -20 -104 -8 -21 -14 -61 -14 -88 0 -27 -7 -65 -15 -85 -8 -19 -15 -61
        -15 -92 0 -31 -6 -67 -13 -81 -8 -15 -17 -61 -20 -103 -4 -43 -12 -87 -18 -99
        -6 -11 -12 -46 -14 -77 -2 -31 -11 -78 -19 -105 -9 -27 -16 -72 -16 -100 0
        -31 -6 -61 -16 -74 -8 -12 -14 -34 -12 -48 l3 -26 110 0 110 0 3 43 c2 24 7
        48 12 54 4 5 11 46 15 90 4 43 14 94 21 112 8 18 14 52 14 75 1 24 9 72 18
        108 l18 65 144 1 c145 1 145 1 148 25 2 13 7 33 12 44 13 30 19 115 8 121 -5
        4 -15 1 -21 -5 -7 -7 -56 -11 -129 -11 -142 0 -149 5 -122 97 9 32 16 67 16
        78 -1 39 21 136 32 142 6 4 82 6 168 4 155 -3 157 -3 171 21 9 13 17 54 19 93
        l3 70 -273 3 c-253 2 -273 1 -278 -15z"></path>
        <path d="M3130 2127 c-41 -34 -149 -119 -240 -189 -91 -69 -174 -135 -184
        -147 -11 -11 -25 -21 -31 -21 -7 0 -19 -7 -26 -17 -14 -17 -177 -146 -356
        -283 -32 -24 -86 -68 -120 -97 -33 -29 -64 -53 -67 -53 -4 0 -42 -28 -84 -62
        -43 -35 -85 -67 -94 -73 -8 -5 -51 -39 -94 -74 -44 -35 -89 -68 -101 -74 -13
        -6 -23 -16 -23 -24 0 -10 27 -13 126 -13 l126 0 87 72 c48 40 116 96 150 123
        35 28 116 92 180 143 64 51 157 124 206 161 50 38 115 89 146 113 30 24 131
        102 223 173 92 72 190 146 217 166 65 47 85 75 69 94 -7 8 -15 44 -18 80 -2
        36 -7 65 -11 65 -3 0 -40 -28 -81 -63z m71 -57 c12 -54 16 -49 -165 -186 -77
        -60 -177 -135 -220 -168 -43 -34 -101 -78 -129 -98 l-50 -37 -31 32 c-17 18
        -31 33 -31 33 0 1 75 62 345 279 91 73 185 149 209 169 50 42 58 39 72 -24z"></path>
        <path d="M2117 2070 c-14 -16 -61 -58 -104 -92 -43 -33 -99 -81 -125 -105 -26
        -23 -51 -43 -56 -43 -5 0 -31 -21 -58 -46 -27 -25 -65 -58 -84 -72 -33 -25
        -78 -63 -390 -326 -69 -58 -200 -163 -292 -233 -100 -77 -166 -134 -165 -143
        1 -8 8 -15 15 -14 6 1 48 2 92 3 l79 1 119 103 c179 153 221 189 272 227 25
        19 55 44 66 55 11 11 49 43 84 70 34 28 86 70 114 95 74 64 344 285 421 346
        94 73 92 70 72 103 -10 16 -16 44 -15 62 4 43 -14 47 -45 9z m13 -89 c0 -20
        -157 -154 -171 -146 -21 13 -7 45 34 76 23 18 59 48 80 66 39 34 57 36 57 4z"></path>
        <path d="M6700 2021 c0 -5 10 -11 22 -13 12 -2 23 -9 26 -15 5 -18 -33 -16
        -52 2 -22 22 -32 19 -60 -18 -35 -45 -36 -115 -3 -143 54 -49 107 -68 122 -44
        3 6 14 10 24 10 30 0 61 54 61 105 0 51 -31 105 -61 105 -10 0 -21 5 -24 10
        -8 13 -55 13 -55 1z m98 -63 c15 -15 16 -84 1 -94 -20 -12 -36 19 -32 64 5 44
        11 50 31 30z m-123 -56 c0 -46 -19 -44 -23 2 -3 28 0 37 10 34 7 -3 13 -19 13
        -36z m60 8 c-5 -8 -11 -8 -17 -2 -6 6 -7 16 -3 22 5 8 11 8 17 2 6 -6 7 -16 3
        -22z m5 -56 c15 -38 13 -44 -15 -44 -21 0 -25 5 -25 28 0 48 24 58 40 16z"></path>
        <path d="M6134 1955 c-10 -8 -26 -15 -35 -15 -21 0 -117 -86 -130 -114 -5 -12
        -13 -28 -18 -36 -31 -54 -40 -83 -47 -140 -4 -36 -11 -76 -17 -90 -5 -14 -13
        -52 -17 -85 -5 -33 -13 -78 -19 -100 -17 -64 -14 -250 4 -265 8 -7 15 -18 15
        -25 0 -20 81 -85 105 -85 12 0 29 -6 39 -13 20 -15 174 -13 190 3 5 5 23 10
        38 10 51 0 145 63 180 120 43 69 67 152 54 186 -5 13 -9 14 -21 4 -10 -9 -39
        -11 -90 -8 -83 6 -105 -6 -105 -55 0 -16 -12 -39 -30 -57 -28 -29 -34 -31 -92
        -28 -59 3 -64 5 -86 38 -24 36 -24 44 -3 125 5 22 12 52 16 67 l5 28 222 2
        222 3 3 69 c2 38 9 78 15 89 5 11 13 76 16 144 l5 124 -39 40 c-65 67 -102 79
        -240 79 -90 0 -125 -4 -140 -15z m185 -174 c24 -23 31 -37 31 -68 0 -36 -16
        -94 -33 -120 -9 -14 -170 -19 -201 -7 -18 7 -23 79 -7 89 5 3 12 19 16 35 4
        17 24 44 48 65 55 45 102 47 146 6z"></path>
        <path d="M1379 1904 c-13 -16 -145 -129 -215 -184 -17 -14 -75 -61 -129 -105
        -180 -147 -233 -190 -322 -260 -48 -38 -123 -100 -166 -137 -43 -37 -118 -97
        -167 -134 -49 -37 -87 -71 -84 -75 3 -5 49 -9 103 -9 96 0 98 0 119 29 11 16
        56 57 100 92 43 35 128 107 189 159 129 111 357 303 450 378 36 29 88 73 115
        97 49 44 49 44 46 101 -3 60 -16 76 -39 48z m19 -66 c5 -24 -48 -79 -172 -179
        -61 -49 -198 -160 -305 -247 -251 -204 -227 -188 -240 -164 -9 17 4 32 111
        123 176 151 260 222 388 329 62 52 130 110 149 127 38 35 64 39 69 11z"></path>
        <path d="M2158 1880 c-7 -12 -66 -65 -132 -118 -65 -53 -162 -132 -215 -175
        -53 -44 -99 -83 -102 -89 -4 -5 -15 -15 -26 -21 -12 -7 -63 -47 -114 -90 -355
        -298 -429 -357 -446 -357 -7 0 -13 -7 -13 -15 0 -12 16 -15 88 -15 78 0 91 3
        108 21 16 18 113 96 304 244 21 17 107 84 190 150 83 66 177 140 208 163 213
        163 230 180 202 208 -6 6 -12 33 -14 59 -3 54 -18 68 -38 35z m10 -101 c2 -21
        -8 -35 -54 -72 -31 -26 -60 -47 -65 -47 -6 0 -14 10 -19 23 -8 19 -1 29 48 75
        61 56 85 62 90 21z"></path>
        <path d="M1354 1672 c-96 -80 -227 -192 -335 -284 -43 -38 -83 -68 -89 -68 -6
        0 -13 -6 -16 -14 -3 -7 -35 -37 -71 -67 -36 -30 -102 -84 -145 -122 -44 -37
        -93 -74 -109 -82 -50 -26 -34 -35 66 -35 l96 0 42 41 c23 23 76 68 117 100 41
        33 98 78 126 102 74 62 242 198 281 229 19 15 57 47 84 72 l49 45 0 70 c0 38
        -4 72 -8 75 -4 2 -44 -25 -88 -62z m74 -16 c7 -55 -7 -73 -114 -158 -59 -46
        -144 -112 -190 -148 -46 -36 -119 -93 -163 -127 -44 -35 -83 -63 -87 -63 -4 0
        -12 8 -19 17 -14 19 -6 27 224 229 69 60 168 148 220 197 53 48 103 86 111 85
        8 -2 16 -16 18 -32z"></path>
        <path d="M2755 1560 c-3 -5 -1 -10 4 -10 6 0 11 5 11 10 0 6 -2 10 -4 10 -3 0
        -8 -4 -11 -10z"></path>
        <path d="M2610 1449 c-47 -39 -102 -82 -122 -97 -36 -26 -145 -113 -300 -238
        -42 -34 -90 -68 -107 -75 -17 -8 -31 -18 -31 -24 0 -7 229 -10 678 -9 769 1
        782 1 782 12 0 5 -300 12 -666 15 -367 3 -671 10 -675 14 -9 9 19 33 297 258
        195 158 244 200 244 208 0 14 -18 3 -100 -64z"></path>
        <path d="M258 803 c-10 -2 -18 -9 -18 -14 0 -5 1246 -9 3211 -9 2564 0 3210 3
        3207 13 -4 9 -652 12 -3194 13 -1754 1 -3197 0 -3206 -3z"></path>
        <path d="M350 560 c-19 -10 -48 -32 -64 -49 -27 -28 -29 -37 -30 -105 0 -66 2
        -78 24 -102 49 -52 95 -74 157 -74 69 0 138 33 138 65 0 26 -56 33 -75 11 -8
        -10 -29 -16 -59 -16 -37 0 -54 6 -84 31 -34 28 -37 35 -37 81 0 45 4 54 37 84
        31 28 45 34 83 34 34 0 52 -5 65 -20 22 -25 37 -25 58 -2 26 29 21 39 -29 62
        -57 25 -135 25 -184 0z"></path>
        <path d="M730 565 c-7 -8 -18 -15 -24 -15 -35 0 -86 -92 -85 -152 1 -54 24
        -94 78 -136 38 -28 50 -32 107 -32 136 0 217 86 199 208 -9 59 -39 98 -94 123
        -54 24 -162 26 -181 4z m171 -76 c37 -29 39 -34 39 -84 0 -50 -2 -55 -39 -84
        -69 -55 -163 -35 -205 43 -19 35 -19 37 -1 76 37 83 134 106 206 49z"></path>
        <path d="M1100 578 c0 -2 -1 -82 -1 -178 l-1 -175 28 0 29 0 1 110 c1 144 2
        145 19 145 14 0 17 -8 28 -70 3 -14 15 -50 27 -80 12 -30 25 -66 29 -80 4 -14
        16 -26 28 -28 23 -3 55 47 68 108 4 19 10 40 14 45 3 6 11 28 16 50 6 24 16
        40 25 40 12 0 15 -19 15 -114 0 -94 3 -116 16 -124 9 -6 24 -7 33 -4 14 6 16
        29 16 182 l0 175 -50 0 c-46 0 -50 -2 -64 -32 -21 -48 -56 -156 -56 -173 0
        -21 -27 -30 -45 -15 -8 7 -15 23 -15 36 0 12 -5 35 -12 51 -6 15 -19 51 -28
        78 l-16 50 -52 3 c-29 2 -52 2 -52 0z"></path>
        <path d="M1589 578 c0 -2 -1 -79 -1 -172 -1 -143 1 -171 14 -179 8 -6 23 -7
        32 -4 15 6 17 21 14 128 -2 91 0 123 9 126 7 3 17 -8 23 -24 5 -15 15 -36 20
        -45 6 -10 10 -28 10 -41 0 -13 7 -32 15 -43 8 -10 15 -29 15 -41 0 -23 32 -63
        50 -63 15 0 80 154 80 189 0 21 36 71 52 71 10 0 4 -182 -8 -222 -6 -20 29
        -42 54 -34 15 5 17 24 17 181 l0 176 -55 -3 c-51 -3 -55 -5 -58 -30 -2 -14
        -10 -32 -18 -38 -8 -7 -14 -22 -14 -34 0 -12 -6 -31 -14 -42 -8 -11 -16 -35
        -18 -54 -2 -18 -8 -35 -15 -37 -12 -4 -53 78 -53 106 0 10 -7 26 -15 37 -8 10
        -15 30 -15 45 0 37 -18 49 -72 49 -26 0 -48 -1 -49 -2z"></path>
        <path d="M2070 465 c0 -130 13 -172 69 -213 60 -44 180 -21 213 41 6 12 13 69
        15 127 2 58 4 116 6 130 2 22 -2 25 -34 28 l-35 3 3 -113 c4 -101 2 -117 -16
        -145 -18 -29 -26 -33 -64 -33 -33 0 -49 6 -66 24 -21 22 -22 31 -20 142 l3
        119 -37 3 -37 3 0 -116z"></path>
        <path d="M2470 578 c-1 -2 -2 -81 -3 -176 -2 -155 0 -173 15 -178 30 -9 58 13
        53 44 -2 15 -7 69 -10 120 -5 77 -3 92 9 92 14 0 56 -45 56 -61 0 -4 14 -28
        30 -52 17 -25 30 -48 30 -52 0 -4 14 -25 31 -47 29 -36 35 -39 73 -36 35 3 41
        6 38 23 -3 19 -2 242 1 295 2 22 -2 25 -36 28 l-38 3 5 -48 c15 -138 17 -191
        6 -198 -14 -9 -47 20 -56 48 -4 11 -19 38 -35 60 -16 22 -29 44 -29 50 0 5
        -14 27 -31 48 -26 33 -36 39 -70 39 -21 0 -39 -1 -39 -2z"></path>
        <path d="M2900 573 c-1 -5 -1 -82 -1 -173 0 -138 3 -167 16 -175 17 -11 51 5
        49 24 -1 6 -2 83 -2 171 l-2 160 -30 0 c-16 0 -30 -3 -30 -7z"></path>
        <path d="M3014 565 c-13 -33 4 -45 61 -45 l56 0 -2 -147 -2 -148 33 0 33 0 1
        145 1 145 52 3 c29 2 56 9 63 17 19 23 38 18 54 -12 8 -16 33 -53 56 -83 41
        -54 41 -56 38 -129 -2 -61 0 -76 15 -85 12 -8 22 -8 34 0 13 8 16 24 14 75 -2
        60 1 70 36 128 21 34 43 71 49 82 6 11 21 27 33 35 27 19 19 34 -18 34 -27 0
        -71 -35 -71 -57 0 -6 -7 -16 -15 -23 -8 -7 -15 -21 -15 -31 0 -10 -5 -21 -11
        -24 -14 -9 -59 34 -59 56 0 10 -5 21 -11 24 -5 4 -14 17 -19 30 -9 23 -10 23
        -205 24 -166 1 -196 -1 -201 -14z"></path>
        <path d="M3847 573 c-4 -3 -7 -82 -7 -174 l0 -169 25 -6 c41 -10 54 9 42 60
        -15 68 -8 76 67 76 61 0 65 2 95 35 26 30 31 44 31 85 0 46 -3 51 -37 75 -33
        22 -48 25 -124 25 -47 0 -89 -3 -92 -7z m178 -73 c15 -16 17 -26 9 -48 -9 -25
        -13 -27 -69 -27 l-60 0 -3 33 c-5 54 2 62 56 62 36 0 54 -5 67 -20z"></path>
        <path d="M4180 578 c-1 -2 -2 -81 -3 -176 l-2 -173 110 3 c110 3 110 3 110 28
        0 24 -3 25 -80 30 l-80 5 4 115 c2 63 4 126 5 140 1 21 -4 25 -31 28 -18 2
        -33 2 -33 0z"></path>
        <path d="M4565 550 c-8 -16 -15 -38 -15 -48 0 -11 -7 -25 -15 -32 -8 -7 -15
        -19 -15 -27 0 -8 -7 -27 -15 -41 -8 -15 -25 -52 -39 -84 -14 -31 -30 -59 -35
        -63 -24 -14 -9 -26 31 -23 36 3 43 7 48 28 6 24 10 25 89 28 87 3 111 -5 111
        -39 0 -15 8 -19 39 -19 39 0 61 13 42 25 -9 5 -33 52 -68 135 -8 19 -23 53
        -33 75 -10 22 -26 57 -35 78 -13 31 -21 37 -45 37 -23 0 -33 -7 -45 -30z m57
        -87 c20 -23 41 -90 33 -103 -3 -5 -26 -10 -51 -10 -51 0 -67 19 -40 49 9 10
        16 29 16 43 0 41 17 49 42 21z"></path>
        <path d="M4774 565 c-13 -34 3 -45 66 -45 56 0 65 -4 62 -31 -1 -3 -2 -62 -3
        -130 -1 -104 1 -125 15 -134 11 -7 21 -7 32 0 14 9 17 33 18 150 l1 140 50 5
        c45 5 50 7 50 30 l0 25 -143 3 c-120 2 -143 0 -148 -13z"></path>
        <path d="M5136 572 c-2 -4 -6 -84 -7 -178 l-2 -169 34 0 33 0 1 65 0 65 80 0
        80 0 0 30 0 30 -83 3 -83 3 3 47 3 47 90 5 c88 5 90 6 90 30 l0 25 -117 3
        c-64 1 -119 -1 -122 -6z"></path>
        <path d="M5535 561 c-22 -10 -51 -30 -64 -45 -22 -24 -25 -35 -25 -111 0 -79
        2 -87 28 -114 42 -44 86 -61 155 -61 65 0 122 21 152 56 27 32 49 85 49 121 0
        38 -28 99 -57 125 -54 49 -166 62 -238 29z m178 -72 c34 -28 37 -34 37 -85 0
        -49 -3 -58 -32 -85 -27 -24 -41 -29 -85 -29 -44 0 -58 5 -87 30 -119 105 44
        271 167 169z"></path>
        <path d="M5907 573 c-4 -3 -7 -79 -7 -168 0 -171 5 -191 47 -183 15 3 18 14
        18 68 0 63 1 65 27 68 22 3 30 -2 37 -20 5 -13 16 -30 25 -37 9 -7 16 -19 16
        -25 0 -19 44 -56 66 -56 44 0 43 20 -1 67 -49 51 -62 81 -37 90 43 15 62 45
        62 99 0 50 -2 55 -37 79 -33 22 -48 25 -124 25 -47 0 -89 -3 -92 -7z m174 -63
        c23 -13 26 -62 5 -79 -8 -7 -37 -11 -68 -9 l-53 3 -1 40 c-1 22 0 43 3 48 6
        11 91 9 114 -3z"></path>
        <path d="M6250 405 c0 -153 2 -176 16 -182 24 -9 49 11 48 38 -1 13 -4 66 -8
        117 -6 86 -5 93 11 90 20 -4 34 -30 58 -108 16 -54 30 -90 45 -120 4 -8 15
        -15 25 -15 10 0 21 7 25 15 29 62 40 89 46 115 4 17 10 35 14 40 5 6 11 27 15
        48 7 38 18 46 32 25 4 -7 8 -65 8 -128 l0 -115 29 0 29 0 -1 175 0 175 -42 3
        c-47 4 -80 -17 -80 -52 -1 -12 -9 -39 -20 -61 -11 -22 -19 -49 -20 -61 -1 -52
        -60 -74 -60 -22 0 13 -7 36 -15 52 -8 15 -15 33 -15 38 0 6 -6 24 -14 41 -8
        18 -16 40 -20 50 -4 13 -17 17 -56 17 l-50 0 0 -175z"></path>
    </g>
</svg>